<?xml version="1.0" standalone="no"?><!DOCTYPE svg PUBLIC "-//W3C//DTD SVG 1.1//EN" "http://www.w3.org/Graphics/SVG/1.1/DTD/svg11.dtd"><svg t="1617445103630" class="icon" viewBox="0 0 1024 1024" version="1.1" xmlns="http://www.w3.org/2000/svg" p-id="3035" xmlns:xlink="http://www.w3.org/1999/xlink" width="200" height="200"><defs><style type="text/css"></style></defs><path d="M268.9 488.3L681.6 75.6C688.2 69 697.3 65 707.4 65c20.2 0 36.5 16.3 36.5 36.5 0 10.1-4.1 19.2-10.7 25.8l-391 391 378.5 378.5c6 6.2 9.7 14.7 9.7 24.1 0 19.2-15.5 34.7-34.7 34.7-9.4 0-17.9-3.7-24.1-9.7L279.2 553.4c-4.7-4.8-8.1-11.1-9.3-18 0.7 4.9-0.3 5.5-1 4.4-6.6-6.6-10.7-15.7-10.7-25.8 0.1-10 4.1-19.1 10.7-25.7z m0 0" p-id="3036"></path></svg>