<?xml version="1.0" standalone="no"?><!DOCTYPE svg PUBLIC "-//W3C//DTD SVG 1.1//EN" "http://www.w3.org/Graphics/SVG/1.1/DTD/svg11.dtd"><svg t="1616770656328" class="icon" viewBox="0 0 1024 1024" version="1.1" xmlns="http://www.w3.org/2000/svg" p-id="9104" xmlns:xlink="http://www.w3.org/1999/xlink" width="200" height="200"><defs><style type="text/css"></style></defs><path d="M837.8 944.2h-645c-18.8 0-34.2-15.4-34.2-34.2V148.7c0-18.8 15.4-34.2 34.2-34.2h645c18.8 0 34.2 15.4 34.2 34.2V910c0 18.8-15.4 34.2-34.2 34.2z" fill="#3173E7" p-id="9105"></path><path d="M837.8 911.7h-645c-18.8 0-34.2-15.4-34.2-34.2V116.2c0-18.8 15.4-34.2 34.2-34.2h645c18.8 0 34.2 15.4 34.2 34.2v761.3c0 18.8-15.4 34.2-34.2 34.2z" fill="#E7F5FD" p-id="9106"></path><path d="M837.9 82h-43c18.7 0 34.1 15.5 34.1 34.3v761c0 18.9-15.3 34.3-34.1 34.3h43c18.7 0 34.1-15.5 34.1-34.3v-761c0-18.8-15.4-34.3-34.1-34.3z" fill="#F0F8FC" p-id="9107"></path><path d="M907.1 132.8H116.9c-11.6 0-21-9.5-21-21V101c0-11.6 9.5-21 21-21h790.3c11.6 0 21 9.5 21 21v10.8c-0.1 11.5-9.5 21-21.1 21z" fill="#3173E7" p-id="9108"></path><path d="M903.8 79.8H120.2c-13.4 0-24.4 8.1-24.4 18.1V114c0-10 11-18.1 24.4-18.1h783.5c13.4 0 24.4 8.1 24.4 18.1V97.9c0-10-10.9-18.1-24.3-18.1z" fill="#589EE4" p-id="9109"></path><path d="M134.9 114.7V98c0-10 11-18.1 24.4-18.1h-39c-13.4 0-24.4 8.1-24.4 18.1v16.7c0 10 11 18.1 24.4 18.1h39c-13.5 0-24.4-8.2-24.4-18.1z" fill="#3173E7" p-id="9110"></path><path d="M903.6 79.9H850c13.4 0 24.4 8.1 24.4 18.1v16.7c0 10-11 18.1-24.4 18.1h53.6c13.4 0 24.4-8.1 24.4-18.1V98c0-9.9-11-18.1-24.4-18.1z" fill="#8ABBEC" p-id="9111"></path><path d="M928 114.3V98.4c-0.6-4.6-2.6-8.8-5.7-12-4.5-4-11.2-6.5-18.7-6.5H850c13.4 0 24.4 8.1 24.4 18.1v16.7c0 10-11 18.1-24.4 18.1h53.6c7.5 0 14.2-2.5 18.7-6.5 3-3.2 5.1-7.4 5.7-12z" fill="#6F9DEE" p-id="9112"></path><path d="M903.6 79.9H850c12.4 0 22.8 7 24.2 15.9h29.6c12.5 0 22.8 7 24.2 16V98.4c-0.6-4.6-2.6-8.8-5.7-12-4.5-4-11.2-6.5-18.7-6.5z" fill="#8ABBEC" p-id="9113"></path><path d="M226.4 587.1l87.1-159.7c11.4-22.6 39.8-30.9 61.7-18L494 479.1c12.2 7.1 27.7 5.4 37.9-4.3L704 297.7c31.1-27.6 79.6-2.4 79.6 25.1l-2.3 302.9c0 17.2-14.1 31.2-31.6 31.2H269.2c-23.7 0-41.3-17.8-43.7-38.7-0.9-8-3-23.1 0.9-31.1z" fill="#3173E7" p-id="9114"></path><path d="M229.8 573.7l83.7-166.5c11.4-22.6 39.8-30.9 61.7-18L494 458.9c12.2 7.1 27.7 5.4 37.9-4.3L704 277.5c31.1-27.6 79.6-2.4 79.6 25.1l-2.3 302.9c0 17.2-14.1 31.2-31.6 31.2H269.2c-32.6-0.2-53.9-34.1-39.4-63z" fill="#5EADEF" p-id="9115"></path><path d="M232 684.4l129.3-163.5c9.4-11.9 25.9-15.2 39.1-7.7l120.7 68c11.7 6.6 26.4 4.8 36.2-4.5l173-164.8c19.6-18.7 51.9-4.7 51.9 22.6v269.4c0 17.1-13.8 31-30.8 31H256c-20.2 0-33.4-18.5-30.4-36.3 0.5-2.7-1.5-15.7-0.3-18.3 1-2.2 5.1 6.1 6.7 4.1z" fill="#F99403" p-id="9116"></path><path d="M232 663.7l129.3-163.5c9.4-11.9 25.9-15.2 39.1-7.7l120.7 68c11.7 6.6 26.4 4.8 36.2-4.5l173-164.8c19.6-18.7 51.9-4.7 51.9 22.6v269.4c0 17.1-13.8 31-30.8 31H256c-25.8-0.1-40.1-30.2-24-50.5z" fill="#FCCA4C" p-id="9117"></path><path d="M463.1 248.8H253.6c-11 0-19.9-8.9-19.9-19.9v-0.2c0-11 8.9-19.9 19.9-19.9h209.5c11 0 19.9 8.9 19.9 19.9v0.2c0 11-8.9 19.9-19.9 19.9zM773.3 838.3H243.9c-5.8 0-10.4-4.7-10.4-10.4v-6c0-5.8 4.7-10.4 10.4-10.4h529.4c5.8 0 10.4 4.7 10.4 10.4v6c0 5.7-4.6 10.4-10.4 10.4zM604.9 248.8H556c-11 0-19.9-8.9-19.9-19.9v-0.2c0-11 8.9-19.9 19.9-19.9h48.9c11 0 19.9 8.9 19.9 19.9v0.2c0.1 11-8.8 19.9-19.9 19.9z" fill="#5EADEF" p-id="9118"></path></svg>